<svg xmlns="http://www.w3.org/2000/svg" width="760" height="180" viewBox="0 0 760 180" role="img" aria-labelledby="title desc">
  <title id="title">姿态与动作识别复古动画装饰</title>
  <desc id="desc">带胶片边框、动态人物和动作线的复古二次元横幅。</desc>
  <rect x="8" y="8" width="744" height="164" rx="26" fill="#EEE7F8" stroke="#352D46" stroke-width="3"/>
  <path d="M30 141 Q160 105 277 139 T514 137 T733 126" fill="none" stroke="#F19A9A" stroke-width="10" opacity=".55"/>
  <path d="M30 145 Q160 109 277 143 T514 141 T733 130" fill="none" stroke="#7DA6D6" stroke-width="3" stroke-dasharray="4 8"/>
  <g transform="translate(53 38)" stroke="#352D46" stroke-width="3" stroke-linejoin="round">
    <rect x="0" y="0" width="132" height="92" rx="10" fill="#FFF5E8"/><path d="M15 14 H27 M15 78 H27 M105 14 H117 M105 78 H117" stroke-width="7"/>
    <circle cx="66" cy="42" r="9" fill="#F19A9A"/><path d="M66 51 L53 67 L78 67z M53 55 L36 46 M77 55 L98 45" fill="none"/>
  </g>
  <g transform="translate(430 32)" stroke="#352D46" stroke-width="3" stroke-linecap="round" stroke-linejoin="round">
    <circle cx="0" cy="22" r="15" fill="#F6C7A8"/><path d="M-14 17 Q0 -2 15 17" fill="#F19A9A"/>
    <path d="M0 37 L-13 78 L14 78z" fill="#7DA6D6"/><path d="M-8 49 L-42 35 M9 49 L43 22 M-8 77 L-35 106 M10 77 L36 97" fill="none"/>
    <path d="M-56 21 q-14 17 0 34 M-69 11 q-23 28 0 55 M57 15 q16 17 0 34" fill="none" stroke="#F19A9A"/>
  </g>
  <g transform="translate(595 38)" stroke="#352D46" stroke-width="3" stroke-linejoin="round">
    <path d="M0 2 L10 25 L35 28 L16 44 L21 69 L0 56 L-21 69 L-16 44 L-35 28 L-10 25z" fill="#F4B942"/>
    <path d="M-48 86 Q0 57 48 86 M-58 101 H58" fill="none" stroke="#7DA6D6" stroke-width="5"/>
  </g>
  <text x="226" y="47" fill="#352D46" font-size="21" font-family="cursive" font-weight="700">POSE TO ACT</text>
  <text x="226" y="72" fill="#352D46" font-size="14" font-family="sans-serif">POSE · TRACK · ACTION</text>
</svg>
